# xmcd
#
# Track frame offsets: 
#        150
#        22892
#        42830
#        61785
#        84245
#        107752
#        128527
#        147307
#        169297
#        189407
#        200145
#        222502
#
# Disc length: 3224 seconds
#
# Revision: 0
# Processed by: cddbd v1.5.2PL0 Copyright (c) Steve Scherf et al.
# Submitted via: ExactAudioCopy v0.95a3
#
DISCID=a40c960c
DTITLE=strozzini - perfect.town
DYEAR=2004
DGENRE=Blues
TTITLE0=while the world turns cold
TTITLE1=my friend
TTITLE2=(sometimes) life sucks
TTITLE3=goddess
TTITLE4=perfect town
TTITLE5=you've got the blues
TTITLE6=i can't get away from you
TTITLE7=last words
TTITLE8=life can be so boring
TTITLE9=let's kill the dj
TTITLE10=i was happy
TTITLE11=in your arms
EXTD=
EXTT0=
EXTT1=
EXTT2=
EXTT3=
EXTT4=
EXTT5=
EXTT6=
EXTT7=
EXTT8=
EXTT9=
EXTT10=
EXTT11=
PLAYORDER=
